<svg width="18" height="18" viewBox="0 0 18 18" fill="none" xmlns="http://www.w3.org/2000/svg">
<path d="M13.6648 0.164752C13.8844 -0.0549175 14.2406 -0.0549175 14.4603 0.164752L17.8353 3.53975C18.0549 3.75942 18.0549 4.11558 17.8353 4.33525L6.58526 15.5852C6.5314 15.6391 6.46715 15.6815 6.39642 15.7098L0.771424 17.9598C0.562502 18.0433 0.323879 17.9944 0.164769 17.8352C0.00565862 17.6761 -0.0433205 17.4375 0.0402483 17.2286L2.29025 11.6036C2.31854 11.5329 2.3609 11.4686 2.41477 11.4148L13.6648 0.164752ZM12.608 2.8125L15.1875 5.392L16.642 3.9375L14.0625 1.358L12.608 2.8125ZM14.392 6.1875L11.8125 3.608L4.50002 10.9205V11.25H5.06252C5.37318 11.25 5.62502 11.5018 5.62502 11.8125V12.375H6.18752C6.49818 12.375 6.75002 12.6268 6.75002 12.9375V13.5H7.07952L14.392 6.1875ZM3.41062 12.0099L3.2919 12.1286L1.57223 16.4278L5.87141 14.7081L5.99013 14.5894C5.77684 14.5095 5.62502 14.3037 5.62502 14.0625V13.5H5.06252C4.75186 13.5 4.50002 13.2482 4.50002 12.9375V12.375H3.93752C3.69631 12.375 3.49057 12.2232 3.41062 12.0099Z" fill="#4349DB"/>
</svg>
