<svg width="18" height="19" viewBox="0 0 18 19" fill="none" xmlns="http://www.w3.org/2000/svg">
<path d="M17.6986 7.54662H12.5558C12.4674 7.54662 12.3951 7.61894 12.3951 7.70733V8.67162C12.3951 8.76001 12.4674 8.83233 12.5558 8.83233H17.6986C17.787 8.83233 17.8593 8.76001 17.8593 8.67162V7.70733C17.8593 7.61894 17.787 7.54662 17.6986 7.54662ZM15.0067 10.2788H12.5558C12.4674 10.2788 12.3951 10.3511 12.3951 10.4395V11.4038C12.3951 11.4922 12.4674 11.5645 12.5558 11.5645H15.0067C15.0951 11.5645 15.1674 11.4922 15.1674 11.4038V10.4395C15.1674 10.3511 15.0951 10.2788 15.0067 10.2788ZM8.30287 5.74863H7.43301C7.30845 5.74863 7.20801 5.84907 7.20801 5.97363V10.9558C7.20801 11.0281 7.24216 11.0944 7.30042 11.1366L10.2917 13.3183C10.3922 13.3906 10.5328 13.3705 10.6051 13.2701L11.1214 12.5649V12.5629C11.1937 12.4625 11.1716 12.3218 11.0712 12.2495L8.52587 10.4093V5.97363C8.52787 5.84907 8.42542 5.74863 8.30287 5.74863Z" fill="black"/>
<path d="M14.8821 12.808H13.7209C13.6084 12.808 13.502 12.8663 13.4417 12.9627C13.1862 13.3677 12.8863 13.743 12.5477 14.0817C11.9647 14.6666 11.2735 15.1326 10.5127 15.4538C9.72316 15.7872 8.88544 15.956 8.0216 15.956C7.15575 15.956 6.31802 15.7872 5.53052 15.4538C4.76914 15.1323 4.0841 14.6703 3.49548 14.0817C2.90686 13.493 2.44481 12.808 2.12338 12.0466C1.7899 11.2591 1.62115 10.4214 1.62115 9.55554C1.62115 8.68969 1.7899 7.85398 2.12338 7.06447C2.44481 6.30309 2.90686 5.61804 3.49548 5.02943C4.0841 4.44081 4.76914 3.97876 5.53052 3.65733C6.31802 3.32384 7.15776 3.15509 8.0216 3.15509C8.88744 3.15509 9.72517 3.32384 10.5127 3.65733C11.2741 3.97876 11.9591 4.44081 12.5477 5.02943C12.8863 5.36807 13.1862 5.74337 13.4417 6.1484C13.502 6.24483 13.6084 6.30309 13.7209 6.30309H14.8821C15.0207 6.30309 15.1091 6.15844 15.0468 6.0359C13.737 3.43032 11.0812 1.73679 8.11602 1.70264C3.77472 1.6484 0.168694 5.20219 0.160658 9.53947C0.152623 13.8848 3.67427 17.4105 8.01959 17.4105C11.0229 17.4105 13.7229 15.7109 15.0468 13.0752C15.0609 13.0471 15.0676 13.0158 15.0663 12.9844C15.0649 12.953 15.0555 12.9224 15.039 12.8956C15.0225 12.8689 14.9994 12.8467 14.9719 12.8314C14.9445 12.8161 14.9135 12.808 14.8821 12.808Z" fill="black"/>
</svg>
