<svg width="16" height="16" viewBox="0 0 16 16" fill="none" xmlns="http://www.w3.org/2000/svg">
<g clip-path="url(#clip0_3703_4648)">
<path d="M11.2858 7.42855H8.57153V4.71427C8.57153 4.6357 8.50725 4.57141 8.42868 4.57141H7.57153C7.49296 4.57141 7.42868 4.6357 7.42868 4.71427V7.42855H4.71439C4.63582 7.42855 4.57153 7.49284 4.57153 7.57141V8.42855C4.57153 8.50713 4.63582 8.57141 4.71439 8.57141H7.42868V11.2857C7.42868 11.3643 7.49296 11.4286 7.57153 11.4286H8.42868C8.50725 11.4286 8.57153 11.3643 8.57153 11.2857V8.57141H11.2858C11.3644 8.57141 11.4287 8.50713 11.4287 8.42855V7.57141C11.4287 7.49284 11.3644 7.42855 11.2858 7.42855Z" fill="#12158F"/>
<path d="M8 0C3.58214 0 0 3.58214 0 8C0 12.4179 3.58214 16 8 16C12.4179 16 16 12.4179 16 8C16 3.58214 12.4179 0 8 0ZM8 14.6429C4.33214 14.6429 1.35714 11.6679 1.35714 8C1.35714 4.33214 4.33214 1.35714 8 1.35714C11.6679 1.35714 14.6429 4.33214 14.6429 8C14.6429 11.6679 11.6679 14.6429 8 14.6429Z" fill="#12158F"/>
</g>
<defs>
<clipPath id="clip0_3703_4648">
<rect width="16" height="16" fill="white"/>
</clipPath>
</defs>
</svg>
